<?xml version="1.0" encoding="UTF-8"?>
<svg id="Layer_1" xmlns="http://www.w3.org/2000/svg" version="1.1" viewBox="0 0 306.4 59.9">
  <path d="M303.2,24h-8v33.4h-7.5V24.1h-7.9v-3.2h23.4v3.1Z"/>
  <path d="M52,47.1h11.5v11H4.9v-10.9h11.7c0,0-.2-.2-.3-.3-3.6-2.1-6.8-4.8-9.2-8.2-1.9-2.7-3.1-5.6-3.6-8.8-.8-5.1.2-9.8,2.9-14.2,2.4-4,5.7-7,9.7-9.3,3.9-2.3,8.2-3.7,12.6-4.3,3.3-.5,6.5-.5,9.8-.2,6.3.7,12.1,2.8,17.2,6.7,3.7,2.8,6.6,6.3,8.2,10.7,2.4,6.4,1.7,12.5-1.9,18.3-2.2,3.7-5.3,6.5-8.9,8.7-.4.2-.7.4-1.1.7h0ZM34.7,48.7c.7,0,1.9,0,3-.3,4.8-.8,8.8-3,11.9-6.7,3.7-4.5,4.9-9.7,3.3-15.3-1.5-5.1-4.9-8.7-9.6-11-4.4-2.1-9-2.6-13.7-1.6-4.9,1.1-8.9,3.6-11.8,7.7-2.7,3.8-3.6,8.1-2.8,12.7.7,3.7,2.6,6.9,5.4,9.4,3.9,3.5,8.5,5.1,14.2,5.2h0Z"/>
  <path d="M107.5,57.8V2.2h7.3v19.5c.7,0,1.2-.1,1.8-.2,2.1-.3,4.3-.3,6.4-.3,3.9.2,7.6,1.2,10.9,3.5,2.9,2.1,4.8,4.9,6,8.3.9,2.6,1.3,5.2,1.1,8-.3,5-2.3,9.2-6,12.5-1.8,1.7-4.1,2.6-6.5,3.2-2.4.7-4.9,1-7.3,1h-13.8.1ZM114.9,24.6v29h0c0,.6,0,.7.6.8,2.2.4,4.4.6,6.6.3,3.2-.4,5.9-1.9,7.7-4.6,1.1-1.5,1.8-3.3,2.2-5.1.5-1.9.5-3.9.5-5.9,0-3.2-.9-6.2-2.5-9-1.8-3.1-4.4-5-7.9-5.6-2.4-.4-4.8-.3-7.3,0h0Z"/>
  <path d="M208.5,39.7c3.4,5.9,6.8,11.8,10.2,17.8h-8.6c-.5,0-.8-.2-1-.6-2.3-4.7-4.7-9.3-7-14-.5-1.1-1.1-2.1-1.6-3.2,0-.2-.2-.3-.3-.5,1,0,1.9-.2,2.8-.3.7,0,1.5-.2,2.2-.5,1.8-.6,3-1.8,3.5-3.6.6-1.9.6-3.9,0-5.8-.8-2.9-2.8-4.5-5.8-5-1.7-.3-3.4-.3-5.1-.2h-1.7v33.7h-7.5V21h17c2.4.1,4.7.6,6.8,1.9,2.9,1.7,4.2,4.3,4.1,7.6,0,2.1-.6,4.1-2,5.7-1.2,1.5-2.8,2.5-4.7,3-.5,0-1,.2-1.5.4h.2Z"/>
  <path d="M105,57.8h-7.9c-.2-.9-.5-1.7-.7-2.6-.7-2.5-1.4-5.1-2.1-7.6q-.2-.6-.8-.6h-12.7q-.6,0-.8.6c-.9,3.2-1.8,6.3-2.7,9.5-.2.7-.3.8-1.1.8h-2.6c.2-.6.3-1.1.5-1.6,2.9-9.7,5.8-19.5,8.7-29.2.4-1.4,1-2.7,2-3.8,2.4-2.7,6.5-2.7,8.9,0,1.2,1.4,2.1,3,2.6,4.7,1.8,6,3.6,12.1,5.4,18.1,1.1,3.7,2.2,7.5,3.3,11.2,0,0,0,.3,0,.5h-.1ZM93.1,43.9c0-.2,0-.4,0-.5-1.1-3.8-2.2-7.6-3.3-11.4-.5-1.6-1-3.1-1.5-4.7-.2-.5-.6-.8-1-.7-.5,0-.9.2-1.1.7-.2.4-.3.8-.4,1.2-1.5,5.1-3,10.2-4.5,15.2v.3h11.9Z"/>
  <path d="M250.7,57.4h-7.4c-.4,0-.5,0-.6-.5-.9-3.1-1.7-6.3-2.6-9.4-.2-.8-.4-.9-1.2-.9h-12.3c-.6,0-.8,0-1,.7-.9,3.1-1.8,6.1-2.6,9.2,0,.2,0,.3-.1.4-.1.3-.3.4-.6.4h-2.9v-.4c3-10.1,6-20.2,9-30.3.5-1.6,1.1-3,2.3-4.2,2.4-2.4,6.3-2.3,8.6.2,1.4,1.5,2.2,3.4,2.8,5.3,1.3,4.3,2.6,8.6,3.8,13,1.5,5.2,3,10.3,4.5,15.5,0,.2.1.5.2.7v.3ZM238.8,43.7v-.6c-1.4-5-2.9-10.1-4.3-15.1-.1-.5-.4-.9-.7-1.3-.5-.7-1.2-.6-1.7,0-.7,1.1-1,2.4-1.4,3.7s-.8,2.9-1.3,4.3c-.8,2.8-1.6,5.7-2.5,8.5v.4h11.9Z"/>
  <path d="M161.1,24.7c-1.1,0-2.1-.2-3.2-.3-1.9,0-3.7-.2-5.6.2-.4,0-.8.2-1.1.4-3.1,1.2-3.4,4.9-1.7,6.8.4.4.8.9,1.3,1.2,1.8,1.2,3.6,2.3,5.5,3.4,1.8,1.1,3.7,2.3,5.3,3.7,1.7,1.5,2.9,3.3,3.4,5.6.8,3.8-.6,7.3-3.8,9.6-1.9,1.3-3.9,2-6.2,2.3-2.4.3-4.9.2-7.3-.2-1.9-.3-3.8-.5-5.7-.8-.6,0-.7-.2-.7-.8v-2.1c.4,0,.7,0,1.1,0,2.4.4,4.7.8,7.1.9,1.5,0,3,0,4.4-.5,3.8-1.1,4.3-5.5,2-7.9-1.3-1.3-2.7-2.3-4.2-3.2-1.9-1.1-3.7-2.2-5.6-3.3-2.5-1.6-4.1-3.8-4.7-6.7-.8-4,1.1-8,4.6-10,1.4-.8,2.9-1.2,4.5-1.5,3.2-.6,6.4-.4,9.6.6.2,0,.4,0,.5.2.1.1.3.3.3.4v2.1l.2-.2Z"/>
  <path d="M278.3,46.8c.9.4,1.8.8,2.7,1.2h0c-1.4,2.7-3.1,5.1-5.5,6.9-1.9,1.3-4,2.1-6.2,2.4-4.7.7-9-.3-12.9-3.1-3.9-2.8-6.2-6.6-6.9-11.3-.5-3.2-.4-6.4.7-9.5,1.3-3.8,3.4-6.9,6.7-9.3,2.1-1.5,4.5-2.3,7.1-2.8,1.9-.3,3.8-.4,5.8-.1,2.9.4,5.4,1.6,7.5,3.6,1.2,1.1,2.2,2.4,3.1,3.7,0,0,0,0,.1.2-1,.4-2,.9-3,1.3-.3-.3-.6-.6-.8-1-.9-1-1.7-2.1-2.7-2.9-3.1-2.4-6.5-3-10.1-1.5-2.1.9-3.5,2.6-4.5,4.6-1.1,2.3-1.7,4.7-1.8,7.2-.1,2.9,0,5.7.7,8.6.5,2,1.1,3.8,2.3,5.5,2.1,3.1,5.1,4.3,8.7,3.9s6.1-2.4,7.9-5.4c.5-.7.8-1.5,1.3-2.3h-.2Z"/>
  <path d="M171.8,24.2h-7.9v-3.1h23.4v3.1h-7.9v33.4h-7.6V24.3h0Z"/>
</svg>