<?xml version="1.0" encoding="UTF-8"?>
<svg id="NPSBG" data-name="Layer 2" xmlns="http://www.w3.org/2000/svg" viewBox="0 0 62.22 55.82">
  <g id="Layer_1-2" data-name="Layer 1">
    <g>
      <path d="M1.75,41.42l27.4-8.9-16.94,23.3c-4.76-3.65-8.43-8.63-10.46-14.39h0Z" fill="#ef7b88" opacity=".5"/>
      <path d="M1.3,22.2l27.38,8.9L1.29,40c-.84-2.82-1.29-5.81-1.29-8.9s.45-6.08,1.3-8.9Z" fill="#ef7b88" opacity=".5"/>
      <path d="M29.15,29.68L1.75,20.78h0c2.03-5.77,5.7-10.75,10.46-14.4l16.94,23.3Z" fill="#ef7b88" opacity=".5"/>
      <path d="M30.36,0v28.8L13.43,5.5C18.26,2.16,24.08.15,30.36,0Z" fill="#ffc50b" opacity=".5"/>
      <path d="M48.79,5.5l-16.93,23.29V0c6.28.15,12.1,2.16,16.93,5.5Z" fill="#ffc50b" opacity=".5"/>
      <path d="M60.46,20.77l-27.4,8.91L50,6.38c4.76,3.64,8.44,8.63,10.46,14.39Z" fill="#94cfc0" opacity=".5"/>
      <path d="M33.06,32.52l27.4,8.91c-2.02,5.76-5.7,10.75-10.46,14.39l-16.94-23.3Z" fill="#94cfc0" opacity=".5"/>
      <path d="M62.22,31.1c0,3.09-.45,6.08-1.29,8.9l-27.4-8.9,27.39-8.9c.85,2.82,1.3,5.81,1.3,8.9Z" fill="#94cfc0" opacity=".5"/>
    </g>
  </g>
</svg>