<?xml version="1.0" encoding="UTF-8"?>
<svg id="NPSFRONT1" xmlns="http://www.w3.org/2000/svg" version="1.1" viewBox="0 0 53 61">
  <!-- Generator: Adobe Illustrator 30.3.0, SVG Export Plug-In . SVG Version: 2.1.3 Build 182)  -->
  <defs>
    <style>
      .st0 {
        fill: #94cfc0;
      }
    </style>
  </defs>
  <g id="Layer_1-2">
    <path class="st0" d="M48,14.5c-4-5.5-9.8-9.3-16.5-10.6l-5.1-3.9-5.3,3.9c-3.6.8-7,2.2-10,4.4C-.8,16.8-3.6,33.4,4.9,45.3c8.5,11.9,25.1,14.7,37,6.2,11.9-8.5,14.7-25.1,6.2-37ZM41.3,50.6c-11.5,8.2-27.4,5.5-35.6-5.9C-2.4,33.3.2,17.3,11.7,9.1c2.9-2.1,6.2-3.5,9.8-4.2h.1s4.9-3.7,4.9-3.7l4.7,3.6h.1c6.5,1.2,12.2,4.9,16,10.2,8.2,11.5,5.5,27.4-5.9,35.6Z"/>
  </g>
</svg>