<?xml version="1.0" encoding="UTF-8"?>
<svg id="NPSFRONT" data-name="Layer 2" xmlns="http://www.w3.org/2000/svg" viewBox="0 0 52.98 61">
  <g id="Layer_1-2" data-name="Layer 1">
    <g>
      <path d="M41.31,50.64c-11.45,8.17-27.41,5.51-35.58-5.93S.23,17.31,11.67,9.14c2.94-2.1,6.23-3.53,9.77-4.24l.11-.03,4.9-3.62,4.68,3.58.12.02c6.48,1.23,12.16,4.86,15.99,10.22,8.17,11.45,5.51,27.4-5.93,35.57Z" fill="#fff"/>
      <path d="M48.05,14.49c-3.95-5.54-9.81-9.3-16.5-10.6l-5.09-3.89-5.32,3.94c-3.64.75-7.02,2.22-10.05,4.38C-.8,16.82-3.57,33.4,4.92,45.29c8.49,11.89,25.07,14.66,36.97,6.17,11.89-8.49,14.66-25.07,6.16-36.97ZM5.73,44.71C-2.44,33.27.23,17.31,11.67,9.14c2.94-2.1,6.23-3.53,9.77-4.24l.11-.03,4.9-3.62,4.68,3.58.12.02c6.48,1.23,12.16,4.86,15.99,10.22,8.17,11.45,5.51,27.4-5.93,35.57-11.45,8.17-27.41,5.51-35.58-5.93Z" fill="#94cfc0"/>
    </g>
  </g>
</svg>